<svg width="270" height="42" viewBox="0 0 270 42" fill="none" xmlns="http://www.w3.org/2000/svg">
<path d="M254.843 15.4398C256.379 13.5918 258.275 12.6558 260.531 12.6318C261.755 12.6078 262.835 12.8118 263.771 13.2438C264.707 13.6518 265.463 14.2158 266.039 14.9358C266.735 15.7758 267.215 16.7598 267.479 17.8878C267.743 18.9918 267.875 20.2278 267.875 21.5958V31.9998H262.763V21.9918C262.763 21.3198 262.691 20.6838 262.547 20.0838C262.427 19.4598 262.211 18.9318 261.899 18.4998C261.587 18.0438 261.167 17.7078 260.639 17.4918C260.135 17.2758 259.559 17.1678 258.911 17.1678C258.095 17.1918 257.399 17.3718 256.823 17.7078C256.271 18.0438 255.851 18.4758 255.563 19.0038C255.275 19.5078 255.071 20.0838 254.951 20.7318C254.855 21.3558 254.807 21.9918 254.807 22.6398V31.9998H249.731V13.0278H254.591L254.843 15.4398Z" fill="#FFC24D"/>
<path d="M236.859 32.2878C233.787 32.2878 231.423 31.4238 229.767 29.6958C228.111 27.9438 227.283 25.5198 227.283 22.4238C227.283 20.9358 227.499 19.5918 227.931 18.3918C228.387 17.1678 229.011 16.1238 229.803 15.2598C230.619 14.3958 231.615 13.7478 232.791 13.3158C233.991 12.8598 235.347 12.6318 236.859 12.6318C238.347 12.6318 239.679 12.8598 240.855 13.3158C242.055 13.7478 243.063 14.3958 243.879 15.2598C244.719 16.1238 245.355 17.1678 245.787 18.3918C246.243 19.5918 246.471 20.9358 246.471 22.4238C246.471 25.5438 245.631 27.9678 243.951 29.6958C242.295 31.4238 239.931 32.2878 236.859 32.2878ZM236.859 17.1678C235.299 17.1678 234.147 17.6718 233.403 18.6798C232.659 19.6878 232.287 20.9478 232.287 22.4598C232.287 23.9958 232.659 25.2678 233.403 26.2758C234.147 27.2838 235.299 27.7878 236.859 27.7878C238.419 27.7878 239.559 27.2838 240.279 26.2758C240.999 25.2678 241.359 23.9958 241.359 22.4598C241.359 20.9478 240.999 19.6878 240.279 18.6798C239.559 17.6718 238.419 17.1678 236.859 17.1678Z" fill="#FFC24D"/>
<path d="M221.179 4.20801C222.115 4.20801 222.871 4.48401 223.447 5.03601C224.023 5.58801 224.311 6.32001 224.311 7.23201C224.311 8.19201 224.023 8.94801 223.447 9.50001C222.871 10.028 222.115 10.292 221.179 10.292C220.267 10.292 219.511 10.028 218.911 9.50001C218.335 8.94801 218.047 8.19201 218.047 7.23201C218.047 6.32001 218.335 5.58801 218.911 5.03601C219.511 4.48401 220.267 4.20801 221.179 4.20801ZM223.735 32H218.659V13.028H223.735V32Z" fill="#FFC24D"/>
<path d="M211.107 17.4559V25.1239C211.107 26.7559 211.935 27.5719 213.591 27.5719H215.463V31.9999H213.087C210.567 32.0959 208.755 31.6159 207.651 30.5599C206.571 29.5039 206.031 27.9079 206.031 25.7719V17.4559H203.151V13.0279H206.031V7.87988H211.107V13.0279H215.643V17.4559H211.107Z" fill="#FFC24D"/>
<path d="M195.834 29.6598C195.114 30.6198 194.238 31.3038 193.206 31.7118C192.174 32.1198 190.974 32.3118 189.606 32.2878C187.854 32.2398 186.39 31.7478 185.214 30.8118C184.59 30.2838 184.098 29.6598 183.738 28.9398C183.402 28.1958 183.234 27.3198 183.234 26.3118C183.258 25.2798 183.486 24.3678 183.918 23.5758C184.374 22.7598 185.058 22.0878 185.97 21.5598C186.738 21.1518 187.602 20.8638 188.562 20.6958C189.546 20.5278 190.614 20.4438 191.766 20.4438H195.654C195.726 19.2678 195.45 18.3918 194.826 17.8158C194.226 17.2158 193.374 16.9038 192.27 16.8798C191.91 16.8798 191.538 16.9038 191.154 16.9518C190.77 16.9998 190.41 17.0958 190.074 17.2398C189.762 17.3838 189.486 17.5878 189.246 17.8518C189.03 18.0918 188.886 18.3918 188.814 18.7518H183.594C183.714 17.5998 184.026 16.6398 184.53 15.8718C185.058 15.0798 185.718 14.4438 186.51 13.9638C187.302 13.4838 188.178 13.1478 189.138 12.9558C190.122 12.7398 191.13 12.6318 192.162 12.6318C192.738 12.6318 193.326 12.6678 193.926 12.7398C194.526 12.7878 195.114 12.9078 195.69 13.0998C196.266 13.2678 196.806 13.5078 197.31 13.8198C197.838 14.1078 198.33 14.4918 198.786 14.9718C199.602 15.9078 200.106 16.9878 200.298 18.2118C200.514 19.4118 200.61 20.5878 200.586 21.7398V31.9998H195.942L195.834 29.6598ZM195.654 23.6118H191.946C191.586 23.6118 191.178 23.6478 190.722 23.7198C190.266 23.7918 189.87 23.9238 189.534 24.1158C189.198 24.3078 188.91 24.5598 188.67 24.8718C188.454 25.1838 188.346 25.5678 188.346 26.0238C188.346 26.4078 188.418 26.7438 188.562 27.0318C188.73 27.3198 188.934 27.5598 189.174 27.7518C189.438 27.9438 189.75 28.0998 190.11 28.2198C190.47 28.3158 190.83 28.3638 191.19 28.3638C191.886 28.3878 192.534 28.2678 193.134 28.0038C193.758 27.7398 194.298 27.3678 194.754 26.8878C195.042 26.5038 195.258 26.0718 195.402 25.5918C195.57 25.0878 195.654 24.4278 195.654 23.6118Z" fill="#FFC24D"/>
<path d="M180.651 16.6998L171.435 27.5718H180.651V31.9998H164.811V28.2918L173.955 17.4198H164.811V13.0278H180.651V16.6998Z" fill="#FFC24D"/>
<path d="M158.707 4.20801C159.643 4.20801 160.399 4.48401 160.975 5.03601C161.551 5.58801 161.839 6.32001 161.839 7.23201C161.839 8.19201 161.551 8.94801 160.975 9.50001C160.399 10.028 159.643 10.292 158.707 10.292C157.795 10.292 157.039 10.028 156.439 9.50001C155.863 8.94801 155.575 8.19201 155.575 7.23201C155.575 6.32001 155.863 5.58801 156.439 5.03601C157.039 4.48401 157.795 4.20801 158.707 4.20801ZM161.263 32H156.187V13.028H161.263V32Z" fill="#FFC24D"/>
<path d="M138.968 15.4398C140.504 13.5918 142.4 12.6558 144.656 12.6318C145.88 12.6078 146.96 12.8118 147.896 13.2438C148.832 13.6518 149.588 14.2158 150.164 14.9358C150.86 15.7758 151.34 16.7598 151.604 17.8878C151.868 18.9918 152 20.2278 152 21.5958V31.9998H146.888V21.9918C146.888 21.3198 146.816 20.6838 146.672 20.0838C146.552 19.4598 146.336 18.9318 146.024 18.4998C145.712 18.0438 145.292 17.7078 144.764 17.4918C144.26 17.2758 143.684 17.1678 143.036 17.1678C142.22 17.1918 141.524 17.3718 140.948 17.7078C140.396 18.0438 139.976 18.4758 139.688 19.0038C139.4 19.5078 139.196 20.0838 139.076 20.7318C138.98 21.3558 138.932 21.9918 138.932 22.6398V31.9998H133.856V13.0278H138.716L138.968 15.4398Z" fill="#FFC24D"/>
<path d="M125.135 29.6598C124.415 30.6198 123.539 31.3038 122.507 31.7118C121.475 32.1198 120.275 32.3118 118.907 32.2878C117.155 32.2398 115.691 31.7478 114.515 30.8118C113.891 30.2838 113.399 29.6598 113.039 28.9398C112.703 28.1958 112.535 27.3198 112.535 26.3118C112.559 25.2798 112.787 24.3678 113.219 23.5758C113.675 22.7598 114.359 22.0878 115.271 21.5598C116.039 21.1518 116.903 20.8638 117.863 20.6958C118.847 20.5278 119.915 20.4438 121.067 20.4438H124.955C125.027 19.2678 124.751 18.3918 124.127 17.8158C123.527 17.2158 122.675 16.9038 121.571 16.8798C121.211 16.8798 120.839 16.9038 120.455 16.9518C120.071 16.9998 119.711 17.0958 119.375 17.2398C119.063 17.3838 118.787 17.5878 118.547 17.8518C118.331 18.0918 118.187 18.3918 118.115 18.7518H112.895C113.015 17.5998 113.327 16.6398 113.831 15.8718C114.359 15.0798 115.019 14.4438 115.811 13.9638C116.603 13.4838 117.479 13.1478 118.439 12.9558C119.423 12.7398 120.431 12.6318 121.463 12.6318C122.039 12.6318 122.627 12.6678 123.227 12.7398C123.827 12.7878 124.415 12.9078 124.991 13.0998C125.567 13.2678 126.107 13.5078 126.611 13.8198C127.139 14.1078 127.631 14.4918 128.087 14.9718C128.903 15.9078 129.407 16.9878 129.599 18.2118C129.815 19.4118 129.911 20.5878 129.887 21.7398V31.9998H125.243L125.135 29.6598ZM124.955 23.6118H121.247C120.887 23.6118 120.479 23.6478 120.023 23.7198C119.567 23.7918 119.171 23.9238 118.835 24.1158C118.499 24.3078 118.211 24.5598 117.971 24.8718C117.755 25.1838 117.647 25.5678 117.647 26.0238C117.647 26.4078 117.719 26.7438 117.863 27.0318C118.031 27.3198 118.235 27.5598 118.475 27.7518C118.739 27.9438 119.051 28.0998 119.411 28.2198C119.771 28.3158 120.131 28.3638 120.491 28.3638C121.187 28.3878 121.835 28.2678 122.435 28.0038C123.059 27.7398 123.599 27.3678 124.055 26.8878C124.343 26.5038 124.559 26.0718 124.703 25.5918C124.871 25.0878 124.955 24.4278 124.955 23.6118Z" fill="#FFC24D"/>
<path d="M104.088 30.0558C103.368 30.8718 102.504 31.4478 101.496 31.7838C100.488 32.1198 99.3958 32.2878 98.2198 32.2878C97.0438 32.2878 95.8918 32.1078 94.7638 31.7478C93.6598 31.3638 92.6998 30.7518 91.8838 29.9118C90.9718 28.9518 90.3358 27.8478 89.9758 26.5998C89.6158 25.3518 89.4358 24.0678 89.4358 22.7478C89.4358 19.6278 90.2998 17.1318 92.0278 15.2598C92.7718 14.4438 93.7318 13.8078 94.9078 13.3518C96.1078 12.8958 97.3918 12.6798 98.7598 12.7038C99.6478 12.6558 100.608 12.8118 101.64 13.1718C102.672 13.5318 103.56 14.1318 104.304 14.9718L104.844 13.0278H109.236V30.8118C109.236 31.5798 109.188 32.3358 109.092 33.0798C109.02 33.8478 108.888 34.5798 108.696 35.2758C108.504 35.9958 108.216 36.6798 107.832 37.3278C107.4 38.1198 106.872 38.7918 106.248 39.3438C105.648 39.8958 104.976 40.3518 104.232 40.7118C103.488 41.0958 102.696 41.3718 101.856 41.5398C101.016 41.7078 100.164 41.7918 99.2998 41.7918C98.1958 41.7918 97.1398 41.6598 96.1318 41.3958C95.1238 41.1558 94.1998 40.7478 93.3598 40.1718C92.5438 39.6198 91.8598 38.9118 91.3078 38.0478C90.7798 37.1838 90.4318 36.1518 90.2638 34.9518H95.6638C95.7598 35.5278 96.1438 36.0438 96.8158 36.4998C97.4878 36.9558 98.3038 37.1838 99.2638 37.1838C100.296 37.1838 101.136 36.9798 101.784 36.5718C102.456 36.1638 102.96 35.6238 103.296 34.9518C103.632 34.2798 103.848 33.5118 103.944 32.6478C104.04 31.7838 104.088 30.9198 104.088 30.0558ZM99.3718 27.7878C100.164 27.7878 100.86 27.6438 101.46 27.3558C102.084 27.0678 102.588 26.6838 102.972 26.2038C103.356 25.6998 103.644 25.1238 103.836 24.4758C104.028 23.8038 104.124 23.0958 104.124 22.3518C104.124 20.8638 103.704 19.6398 102.864 18.6798C102.048 17.6958 100.872 17.1918 99.3358 17.1678C98.5438 17.1678 97.8358 17.3118 97.2118 17.5998C96.6118 17.8878 96.1078 18.2718 95.6998 18.7518C95.3158 19.2318 95.0278 19.7958 94.8358 20.4438C94.6438 21.0918 94.5478 21.7878 94.5478 22.5318C94.5478 23.3238 94.6438 24.0438 94.8358 24.6918C95.0518 25.3158 95.3638 25.8678 95.7718 26.3478C96.1798 26.8038 96.6838 27.1638 97.2838 27.4278C97.8838 27.6678 98.5798 27.7878 99.3718 27.7878Z" fill="#FFC24D"/>
<path d="M80.6755 15.404C81.4435 14.492 82.2595 13.808 83.1235 13.352C84.0115 12.896 85.0675 12.668 86.2915 12.668C86.6035 12.668 86.9035 12.68 87.1915 12.704C87.4795 12.728 87.7435 12.764 87.9835 12.812V17.492C87.4315 17.492 86.8675 17.504 86.2915 17.528C85.7395 17.528 85.2115 17.576 84.7075 17.672C84.2035 17.768 83.7115 17.924 83.2315 18.14C82.7755 18.332 82.3675 18.62 82.0075 19.004C81.4555 19.628 81.1075 20.3 80.9635 21.02C80.8435 21.74 80.7835 22.556 80.7835 23.468V32H75.7075V13.028H80.3875L80.6755 15.404Z" fill="#FFC24D"/>
<path d="M62.836 32.2878C59.764 32.2878 57.4 31.4238 55.744 29.6958C54.088 27.9438 53.26 25.5198 53.26 22.4238C53.26 20.9358 53.476 19.5918 53.908 18.3918C54.364 17.1678 54.988 16.1238 55.78 15.2598C56.596 14.3958 57.592 13.7478 58.768 13.3158C59.968 12.8598 61.324 12.6318 62.836 12.6318C64.324 12.6318 65.656 12.8598 66.832 13.3158C68.032 13.7478 69.04 14.3958 69.856 15.2598C70.696 16.1238 71.332 17.1678 71.764 18.3918C72.22 19.5918 72.448 20.9358 72.448 22.4238C72.448 25.5438 71.608 27.9678 69.928 29.6958C68.272 31.4238 65.908 32.2878 62.836 32.2878ZM62.836 17.1678C61.276 17.1678 60.124 17.6718 59.38 18.6798C58.636 19.6878 58.264 20.9478 58.264 22.4598C58.264 23.9958 58.636 25.2678 59.38 26.2758C60.124 27.2838 61.276 27.7878 62.836 27.7878C64.396 27.7878 65.536 27.2838 66.256 26.2758C66.976 25.2678 67.336 23.9958 67.336 22.4598C67.336 20.9478 66.976 19.6878 66.256 18.6798C65.536 17.6718 64.396 17.1678 62.836 17.1678Z" fill="#FFC24D"/>
<path d="M18.5597 4.06173C18.5597 2.58221 17.3542 1.363 15.89 1.57582C14.371 1.79662 12.8817 2.20552 11.4572 2.79558C9.20543 3.7283 7.15943 5.09539 5.436 6.81882C3.71258 8.54224 2.34548 10.5882 1.41277 12.84C0.480059 15.0918 -9.74463e-07 17.5052 -1.03259e-06 19.9425C-1.09072e-06 22.3798 0.480059 24.7932 1.41277 27.045C2.34548 29.2967 3.71258 31.3427 5.436 33.0662C7.15943 34.7896 9.20543 36.1567 11.4572 37.0894C13.709 38.0221 16.1224 38.5022 18.5597 38.5022L18.5597 29.5935C17.2923 29.5935 16.0373 29.3439 14.8664 28.8589C13.6955 28.3739 12.6315 27.663 11.7354 26.7668C10.8392 25.8706 10.1283 24.8067 9.64329 23.6358C9.15828 22.4649 8.90865 21.2099 8.90865 19.9425C8.90865 18.6751 9.15828 17.4201 9.64329 16.2492C10.1283 15.0783 10.8392 14.0144 11.7354 13.1182C12.6316 12.222 13.6955 11.5111 14.8664 11.0261C15.2093 10.8841 15.5595 10.7622 15.915 10.6609C17.3379 10.2555 18.5597 9.09207 18.5597 7.61254L18.5597 4.06173Z" fill="#FFC24D"/>
<path d="M34.1907 19.9424C35.6702 19.9424 36.8894 21.1479 36.6766 22.612C36.4558 24.1311 36.0469 25.6203 35.4569 27.0449C34.5241 29.2966 33.1571 31.3426 31.4336 33.0661C29.7102 34.7895 27.6642 36.1566 25.4124 37.0893C23.1607 38.022 20.7472 38.5021 18.31 38.5021L18.31 29.5934C19.5773 29.5934 20.8323 29.3438 22.0032 28.8588C23.1742 28.3738 24.2381 27.6629 25.1343 26.7667C26.0304 25.8705 26.7413 24.8066 27.2263 23.6357C27.3684 23.2927 27.4902 22.9426 27.5916 22.587C27.997 21.1642 29.1604 19.9424 30.6399 19.9424L34.1907 19.9424Z" fill="#FFC24D"/>
<path d="M37.3208 1.39111C38.8004 1.39111 40.0196 2.59662 39.8068 4.06076C39.586 5.57982 39.177 7.06906 38.587 8.4936C37.6543 10.7454 36.2872 12.7914 34.5638 14.5148C32.8403 16.2382 30.7943 17.6053 28.5426 18.538C27.118 19.1281 25.6288 19.537 24.1097 19.7578C22.6456 19.9706 21.4401 18.7514 21.4401 17.2719L21.4401 13.7211C21.4401 12.2415 22.6618 11.0782 24.0847 10.6727C24.4403 10.5714 24.7904 10.4496 25.1334 10.3075C26.3043 9.8225 27.3682 9.11161 28.2644 8.21543C29.1606 7.31924 29.8715 6.25532 30.3565 5.08441C30.4985 4.74148 30.6204 4.39133 30.7217 4.03578C31.1271 2.61289 32.2905 1.39112 33.77 1.39111L37.3208 1.39111Z" fill="#FFC24D"/>
</svg>
