<svg width="179" height="41" viewBox="0 0 179 41" fill="none" xmlns="http://www.w3.org/2000/svg">
<path d="M167.693 12.4966C172.517 12.4966 176.477 16.6366 176.477 22.0006C176.477 27.3646 172.517 31.5046 167.693 31.5046C165.065 31.5046 163.157 30.5326 161.861 28.8766V38.2006H157.217V13.0006H161.861V15.1246C163.157 13.4686 165.065 12.4966 167.693 12.4966ZM166.829 27.0766C169.709 27.0766 171.833 25.0246 171.833 22.0006C171.833 18.9766 169.709 16.9246 166.829 16.9246C163.985 16.9246 161.861 18.9766 161.861 22.0006C161.861 25.0246 163.985 27.0766 166.829 27.0766Z" fill="#086CD9"/>
<path d="M148.319 13.0005H152.963V31.0005H148.319V28.9845C147.239 30.6045 145.367 31.5045 142.955 31.5045C139.139 31.5045 136.151 28.8405 136.151 24.0525V13.0005H140.795V23.4765C140.795 25.9245 142.271 27.1845 144.359 27.1845C146.627 27.1845 148.319 25.8525 148.319 22.7205V13.0005Z" fill="#086CD9"/>
<path d="M132.884 17.4644H128.816V24.9524C128.816 26.8965 130.22 26.9325 132.884 26.7885V31.0005C126.368 31.7205 124.172 29.8125 124.172 24.9524V17.4644H121.04V13.0005H124.172V9.36445L128.816 7.96045V13.0005H132.884V17.4644Z" fill="#086CD9"/>
<path d="M113.908 16.0966C114.844 13.6486 117.112 12.6406 119.38 12.6406V17.8246C116.968 17.5366 113.908 18.6166 113.908 22.3966V31.0006H109.264V13.0006H113.908V16.0966Z" fill="#086CD9"/>
<path d="M100.408 13.0006H105.052V31.0006H100.408V28.8766C99.1125 30.4966 97.1685 31.5046 94.5405 31.5046C89.7525 31.5046 85.7925 27.3646 85.7925 22.0006C85.7925 16.6366 89.7525 12.4966 94.5405 12.4966C97.1685 12.4966 99.1125 13.5046 100.408 15.1246V13.0006ZM95.4045 27.0766C98.2845 27.0766 100.408 25.0246 100.408 22.0006C100.408 18.9766 98.2845 16.9246 95.4045 16.9246C92.5605 16.9246 90.4365 18.9766 90.4365 22.0006C90.4365 25.0246 92.5605 27.0766 95.4045 27.0766Z" fill="#086CD9"/>
<path d="M84.0164 17.4644H79.9484V24.9524C79.9484 26.8965 81.3524 26.9325 84.0164 26.7885V31.0005C77.5004 31.7205 75.3044 29.8125 75.3044 24.9524V17.4644H72.1724V13.0005H75.3044V9.36445L79.9484 7.96045V13.0005H84.0164V17.4644Z" fill="#086CD9"/>
<path d="M61.9733 18.1126C61.9733 20.7766 71.2613 19.1206 71.2613 25.7446C71.2613 29.6326 67.8773 31.5046 64.0253 31.5046C60.4253 31.5046 57.7613 29.9926 56.4653 27.2206L60.4973 24.9526C61.0013 26.4286 62.2253 27.2926 64.0253 27.2926C65.5013 27.2926 66.5093 26.7886 66.5093 25.7446C66.5093 23.1166 57.2213 24.5566 57.2213 18.2206C57.2213 14.5486 60.3533 12.4966 64.0613 12.4966C66.9773 12.4966 69.4973 13.8286 70.9013 16.3126L66.9413 18.4726C66.4013 17.3206 65.3933 16.6366 64.0613 16.6366C62.9093 16.6366 61.9733 17.1406 61.9733 18.1126Z" fill="#086CD9"/>
<path d="M13.5339 23.8255L5.40081 32.042C4.27076 33.1837 2.42377 33.1755 1.3038 32.024C0.208073 30.8974 0.222256 29.0991 1.33562 27.9899L12.2398 17.1267C13.4206 15.9504 15.3297 15.9485 16.5128 17.1224L21.6716 22.2412L30.3267 13.473H24.4435C22.9126 13.473 21.6716 12.232 21.6716 10.7011C21.6716 9.17022 22.9126 7.9292 24.4435 7.9292H36.9699C38.6434 7.9292 40.0001 9.28585 40.0001 10.9594V23.3726C40.0001 24.966 38.7084 26.2577 37.1151 26.2577C35.5217 26.2577 34.23 24.966 34.23 23.3726V17.4894L24.1925 27.4817C22.7914 28.8765 20.5325 28.8963 19.1072 27.5262L15.2353 23.8044C14.7577 23.3453 14 23.3547 13.5339 23.8255Z" fill="#086CD9"/>
</svg>
