<svg width="195" height="39" viewBox="0 0 195 39" fill="none" xmlns="http://www.w3.org/2000/svg">
<path d="M187.997 12.2661H192.592L186.532 28.9125C184.801 33.7067 181.971 35.8041 177.743 35.5711V31.5759C180.107 31.6092 181.305 30.6104 182.104 28.3798L175.279 12.2661H179.974L184.302 23.4525L187.997 12.2661Z" fill="#1D88FE"/>
<path d="M167.542 11.7998C171.071 11.7998 173.834 14.2635 173.834 18.6914V28.9123H169.539V19.2241C169.539 16.9602 168.174 15.7949 166.243 15.7949C164.146 15.7949 162.581 17.0268 162.581 19.9232V28.9123H158.286V12.2659H162.581V14.1303C163.58 12.6321 165.311 11.7998 167.542 11.7998Z" fill="#1D88FE"/>
<path d="M150.097 12.2659H154.392V28.9123H150.097V26.948C148.898 28.4462 147.101 29.3784 144.67 29.3784C140.242 29.3784 136.58 25.5497 136.58 20.5891C136.58 15.6285 140.242 11.7998 144.67 11.7998C147.101 11.7998 148.898 12.732 150.097 14.2302V12.2659ZM145.469 25.2834C148.133 25.2834 150.097 23.3857 150.097 20.5891C150.097 17.7925 148.133 15.8948 145.469 15.8948C142.839 15.8948 140.875 17.7925 140.875 20.5891C140.875 23.3857 142.839 25.2834 145.469 25.2834Z" fill="#1D88FE"/>
<path d="M126.293 11.7998C130.754 11.7998 134.417 15.6285 134.417 20.5891C134.417 25.5497 130.754 29.3784 126.293 29.3784C123.863 29.3784 122.098 28.4795 120.9 26.948V35.5709H116.605V12.2659H120.9V14.2302C122.098 12.6987 123.863 11.7998 126.293 11.7998ZM125.494 25.2834C128.158 25.2834 130.122 23.3857 130.122 20.5891C130.122 17.7925 128.158 15.8948 125.494 15.8948C122.864 15.8948 120.9 17.7925 120.9 20.5891C120.9 23.3857 122.864 25.2834 125.494 25.2834Z" fill="#1D88FE"/>
<path d="M106.665 11.7998C110.461 11.7998 112.958 14.4965 112.958 18.6581V28.9123H108.663V18.9578C108.663 16.9935 107.664 15.7949 105.866 15.7949C103.969 15.7949 102.77 17.0601 102.77 19.557V28.9123H98.4753V18.9578C98.4753 16.9935 97.4765 15.7949 95.6787 15.7949C93.8476 15.7949 92.5492 17.0601 92.5492 19.557V28.9123H88.2544V12.2659H92.5492V14.0304C93.4814 12.6321 95.0461 11.7998 97.1769 11.7998C99.241 11.7998 100.772 12.6654 101.705 14.1969C102.737 12.6987 104.401 11.7998 106.665 11.7998Z" fill="#1D88FE"/>
<path d="M76.4104 29.3784C71.5164 29.3784 67.6211 25.5497 67.6211 20.5891C67.6211 15.6285 71.5164 11.7998 76.4104 11.7998C81.3044 11.7998 85.233 15.6285 85.233 20.5891C85.233 25.5497 81.3044 29.3784 76.4104 29.3784ZM76.4104 25.1835C78.9739 25.1835 80.9382 23.2858 80.9382 20.5891C80.9382 17.8924 78.9739 15.9947 76.4104 15.9947C73.8801 15.9947 71.9159 17.8924 71.9159 20.5891C71.9159 23.2858 73.8801 25.1835 76.4104 25.1835Z" fill="#1D88FE"/>
<path d="M58.9514 29.3784C53.8909 29.3784 50.1621 25.5497 50.1621 20.5891C50.1621 15.6285 53.8909 11.7998 58.9514 11.7998C62.2141 11.7998 65.044 13.531 66.409 16.0946L62.7135 18.2586C62.0476 16.8936 60.616 16.028 58.9181 16.028C56.3546 16.028 54.4569 17.9257 54.4569 20.5891C54.4569 23.2192 56.3546 25.1169 58.9181 25.1169C60.6493 25.1169 62.0809 24.2846 62.7468 22.9196L66.4756 25.0503C65.044 27.6472 62.2141 29.3784 58.9514 29.3784Z" fill="#1D88FE"/>
<path fill-rule="evenodd" clip-rule="evenodd" d="M13.5097 3.146C12.0732 3.146 10.9088 4.31047 10.9088 5.74693V13.8708H2.63511C1.19866 13.8708 0.0341797 15.0353 0.0341797 16.4718V35.6485C0.0341797 37.085 1.19866 38.2494 2.63511 38.2494H21.584C23.0205 38.2494 24.1849 37.085 24.1849 35.6485V27.5246H32.4586C33.895 27.5246 35.0595 26.3601 35.0595 24.9237V5.74693C35.0595 4.31047 33.895 3.146 32.4586 3.146H13.5097ZM24.1849 27.5246V16.4718C24.1849 15.0353 23.0205 13.8708 21.584 13.8708H10.9088V24.9237C10.9088 26.3601 12.0732 27.5246 13.5097 27.5246H24.1849Z" fill="#1D88FE"/>
</svg>
