<svg width="195" height="39" viewBox="0 0 195 39" fill="none" xmlns="http://www.w3.org/2000/svg">
<path d="M187.997 12.2657H192.591L186.532 28.9121C184.801 33.7063 181.971 35.8038 177.742 35.5707V31.5756C180.106 31.6089 181.305 30.6101 182.104 28.3795L175.279 12.2657H179.973L184.301 23.4521L187.997 12.2657Z" fill="#1D88FE"/>
<path d="M167.541 11.7997C171.07 11.7997 173.834 14.2633 173.834 18.6913V28.9122H169.539V19.224C169.539 16.9601 168.174 15.7948 166.243 15.7948C164.146 15.7948 162.581 17.0267 162.581 19.9231V28.9122H158.286V12.2658H162.581V14.1302C163.58 12.632 165.311 11.7997 167.541 11.7997Z" fill="#1D88FE"/>
<path d="M150.097 12.2658H154.391V28.9122H150.097V26.9479C148.898 28.4461 147.1 29.3783 144.67 29.3783C140.242 29.3783 136.58 25.5496 136.58 20.589C136.58 15.6284 140.242 11.7997 144.67 11.7997C147.1 11.7997 148.898 12.7319 150.097 14.2301V12.2658ZM145.469 25.2833C148.132 25.2833 150.097 23.3856 150.097 20.589C150.097 17.7924 148.132 15.8947 145.469 15.8947C142.839 15.8947 140.875 17.7924 140.875 20.589C140.875 23.3856 142.839 25.2833 145.469 25.2833Z" fill="#1D88FE"/>
<path d="M126.293 11.7997C130.754 11.7997 134.417 15.6284 134.417 20.589C134.417 25.5496 130.754 29.3783 126.293 29.3783C123.863 29.3783 122.098 28.4794 120.9 26.9479V35.5707H116.605V12.2658H120.9V14.2301C122.098 12.6986 123.863 11.7997 126.293 11.7997ZM125.494 25.2833C128.158 25.2833 130.122 23.3856 130.122 20.589C130.122 17.7924 128.158 15.8947 125.494 15.8947C122.864 15.8947 120.9 17.7924 120.9 20.589C120.9 23.3856 122.864 25.2833 125.494 25.2833Z" fill="#1D88FE"/>
<path d="M106.665 11.7997C110.46 11.7997 112.957 14.4964 112.957 18.658V28.9122H108.663V18.9576C108.663 16.9934 107.664 15.7948 105.866 15.7948C103.968 15.7948 102.77 17.0599 102.77 19.5569V28.9122H98.475V18.9576C98.475 16.9934 97.4763 15.7948 95.6784 15.7948C93.8473 15.7948 92.5489 17.0599 92.5489 19.5569V28.9122H88.2542V12.2658H92.5489V14.0303C93.4811 12.632 95.0459 11.7997 97.1766 11.7997C99.2408 11.7997 100.772 12.6653 101.704 14.1968C102.737 12.6986 104.401 11.7997 106.665 11.7997Z" fill="#1D88FE"/>
<path d="M76.4101 29.3783C71.5161 29.3783 67.6208 25.5496 67.6208 20.589C67.6208 15.6284 71.5161 11.7997 76.4101 11.7997C81.3042 11.7997 85.2327 15.6284 85.2327 20.589C85.2327 25.5496 81.3042 29.3783 76.4101 29.3783ZM76.4101 25.1834C78.9737 25.1834 80.938 23.2857 80.938 20.589C80.938 17.8923 78.9737 15.9946 76.4101 15.9946C73.8799 15.9946 71.9156 17.8923 71.9156 20.589C71.9156 23.2857 73.8799 25.1834 76.4101 25.1834Z" fill="#1D88FE"/>
<path d="M58.9509 29.3783C53.8904 29.3783 50.1616 25.5496 50.1616 20.589C50.1616 15.6284 53.8904 11.7997 58.9509 11.7997C62.2136 11.7997 65.0435 13.5309 66.4085 16.0945L62.713 18.2585C62.0471 16.8935 60.6156 16.0279 58.9176 16.0279C56.3541 16.0279 54.4564 17.9256 54.4564 20.589C54.4564 23.2191 56.3541 25.1168 58.9176 25.1168C60.6489 25.1168 62.0804 24.2845 62.7463 22.9195L66.4751 25.0502C65.0435 27.6471 62.2136 29.3783 58.9509 29.3783Z" fill="#1D88FE"/>
<path fill-rule="evenodd" clip-rule="evenodd" d="M13.5096 3.14575C12.0731 3.14575 10.9086 4.31023 10.9086 5.74668V13.8704H2.63511C1.19866 13.8704 0.0341797 15.0349 0.0341797 16.4713V35.648C0.0341797 37.0845 1.19866 38.249 2.63511 38.249H21.584C23.0205 38.249 24.1849 37.0845 24.1849 35.648V27.5243H32.4585C33.8949 27.5243 35.0594 26.3599 35.0594 24.9234V5.74668C35.0594 4.31023 33.8949 3.14575 32.4585 3.14575H13.5096ZM24.1849 27.5243V16.4713C24.1849 15.0349 23.0205 13.8704 21.584 13.8704H10.9086V24.9234C10.9086 26.3599 12.0731 27.5243 13.5096 27.5243H24.1849Z" fill="#1D88FE"/>
</svg>
