<svg width="211" height="44" viewBox="0 0 211 44" fill="none" xmlns="http://www.w3.org/2000/svg">
<path d="M208.305 20.6448L203.319 20.9516C203.234 20.5255 203.05 20.1419 202.769 19.801C202.488 19.4516 202.117 19.1746 201.657 18.9701C201.205 18.757 200.664 18.6505 200.033 18.6505C199.189 18.6505 198.478 18.8294 197.898 19.1874C197.319 19.5368 197.029 20.0056 197.029 20.5936C197.029 21.0624 197.216 21.4587 197.591 21.7826C197.966 22.1064 198.61 22.3664 199.522 22.5624L203.076 23.2783C204.985 23.6704 206.408 24.301 207.346 25.1704C208.283 26.0397 208.752 27.1817 208.752 28.5965C208.752 29.8834 208.373 31.0127 207.614 31.9843C206.864 32.9559 205.833 33.7144 204.52 34.2598C203.216 34.7968 201.712 35.0652 200.008 35.0652C197.408 35.0652 195.337 34.524 193.795 33.4417C192.261 32.3508 191.361 30.8678 191.097 28.9928L196.454 28.7115C196.616 29.5042 197.008 30.1093 197.63 30.5269C198.252 30.936 199.049 31.1405 200.02 31.1405C200.975 31.1405 201.742 30.9573 202.322 30.5908C202.91 30.2158 203.208 29.7343 203.216 29.1462C203.208 28.6519 202.999 28.2471 202.59 27.9317C202.181 27.6079 201.55 27.3607 200.698 27.1902L197.297 26.5127C195.38 26.1292 193.952 25.4644 193.015 24.5184C192.086 23.5723 191.621 22.3664 191.621 20.9005C191.621 19.6391 191.962 18.5525 192.644 17.6405C193.334 16.7286 194.302 16.0255 195.546 15.5311C196.799 15.0368 198.265 14.7897 199.944 14.7897C202.424 14.7897 204.376 15.3138 205.799 16.3621C207.231 17.4104 208.066 18.838 208.305 20.6448Z" fill="#9147FF"/>
<path d="M188.09 20.6448L183.104 20.9516C183.019 20.5255 182.835 20.1419 182.554 19.801C182.273 19.4516 181.902 19.1746 181.442 18.9701C180.99 18.757 180.449 18.6505 179.818 18.6505C178.975 18.6505 178.263 18.8294 177.683 19.1874C177.104 19.5368 176.814 20.0056 176.814 20.5936C176.814 21.0624 177.002 21.4587 177.377 21.7826C177.752 22.1064 178.395 22.3664 179.307 22.5624L182.861 23.2783C184.77 23.6704 186.193 24.301 187.131 25.1704C188.068 26.0397 188.537 27.1817 188.537 28.5965C188.537 29.8834 188.158 31.0127 187.399 31.9843C186.649 32.9559 185.618 33.7144 184.306 34.2598C183.002 34.7968 181.497 35.0652 179.793 35.0652C177.193 35.0652 175.122 34.524 173.58 33.4417C172.046 32.3508 171.147 30.8678 170.882 28.9928L176.239 28.7115C176.401 29.5042 176.793 30.1093 177.415 30.5269C178.037 30.936 178.834 31.1405 179.806 31.1405C180.76 31.1405 181.527 30.9573 182.107 30.5908C182.695 30.2158 182.993 29.7343 183.002 29.1462C182.993 28.6519 182.784 28.2471 182.375 27.9317C181.966 27.6079 181.335 27.3607 180.483 27.1902L177.083 26.5127C175.165 26.1292 173.737 25.4644 172.8 24.5184C171.871 23.5723 171.406 22.3664 171.406 20.9005C171.406 19.6391 171.747 18.5525 172.429 17.6405C173.12 16.7286 174.087 16.0255 175.331 15.5311C176.584 15.0368 178.05 14.7897 179.729 14.7897C182.209 14.7897 184.161 15.3138 185.584 16.3621C187.016 17.4104 187.851 18.838 188.09 20.6448Z" fill="#9147FF"/>
<path d="M159.185 35.0652C157.165 35.0652 155.426 34.6561 153.969 33.838C152.52 33.0113 151.404 31.8436 150.619 30.3351C149.835 28.8181 149.443 27.024 149.443 24.953C149.443 22.9331 149.835 21.1604 150.619 19.6348C151.404 18.1093 152.507 16.9204 153.931 16.0681C155.362 15.2158 157.041 14.7897 158.968 14.7897C160.263 14.7897 161.469 14.9985 162.585 15.4161C163.71 15.8252 164.691 16.4431 165.526 17.2698C166.369 18.0965 167.026 19.1363 167.494 20.3891C167.963 21.6334 168.198 23.0908 168.198 24.7613V26.257H151.617V22.882H163.071C163.071 22.0979 162.901 21.4033 162.56 20.7982C162.219 20.1931 161.746 19.7201 161.141 19.3792C160.544 19.0297 159.85 18.855 159.057 18.855C158.23 18.855 157.497 19.0468 156.858 19.4303C156.227 19.8053 155.733 20.3124 155.375 20.9516C155.017 21.5823 154.834 22.2854 154.825 23.061V26.2698C154.825 27.2414 155.004 28.0809 155.362 28.7883C155.729 29.4956 156.244 30.0411 156.909 30.4246C157.574 30.8081 158.362 30.9999 159.274 30.9999C159.879 30.9999 160.433 30.9147 160.936 30.7442C161.439 30.5738 161.869 30.3181 162.227 29.9772C162.585 29.6363 162.858 29.2186 163.046 28.7243L168.083 29.0567C167.827 30.2669 167.303 31.3238 166.51 32.2272C165.726 33.1221 164.712 33.8209 163.468 34.3238C162.232 34.8181 160.804 35.0652 159.185 35.0652Z" fill="#9147FF"/>
<path d="M133.287 23.3294V34.6817H127.841V15.0454H133.032V18.5098H133.262C133.697 17.3678 134.425 16.4644 135.448 15.7996C136.471 15.1263 137.711 14.7897 139.168 14.7897C140.532 14.7897 141.721 15.088 142.735 15.6846C143.749 16.2811 144.537 17.1334 145.1 18.2414C145.662 19.3408 145.944 20.6533 145.944 22.1789V34.6817H140.498V23.1505C140.506 21.9488 140.199 21.0113 139.577 20.338C138.955 19.6561 138.099 19.3152 137.008 19.3152C136.275 19.3152 135.627 19.4729 135.064 19.7883C134.51 20.1036 134.076 20.5638 133.76 21.1689C133.454 21.7655 133.296 22.4857 133.287 23.3294Z" fill="#9147FF"/>
<path d="M118.033 34.6817V15.0453H123.479V34.6817H118.033ZM120.769 12.5141C119.959 12.5141 119.264 12.2456 118.685 11.7087C118.114 11.1632 117.828 10.5113 117.828 9.75273C117.828 9.00273 118.114 8.35926 118.685 7.82233C119.264 7.27688 119.959 7.00415 120.769 7.00415C121.578 7.00415 122.269 7.27688 122.84 7.82233C123.419 8.35926 123.709 9.00273 123.709 9.75273C123.709 10.5113 123.419 11.1632 122.84 11.7087C122.269 12.2456 121.578 12.5141 120.769 12.5141Z" fill="#9147FF"/>
<path d="M114.156 20.6448L109.17 20.9516C109.085 20.5255 108.902 20.1419 108.621 19.801C108.339 19.4516 107.969 19.1746 107.508 18.9701C107.057 18.757 106.515 18.6505 105.885 18.6505C105.041 18.6505 104.329 18.8294 103.75 19.1874C103.17 19.5368 102.881 20.0056 102.881 20.5936C102.881 21.0624 103.068 21.4587 103.443 21.7826C103.818 22.1064 104.462 22.3664 105.373 22.5624L108.927 23.2783C110.837 23.6704 112.26 24.301 113.197 25.1704C114.135 26.0397 114.604 27.1817 114.604 28.5965C114.604 29.8834 114.224 31.0127 113.466 31.9843C112.716 32.9559 111.685 33.7144 110.372 34.2598C109.068 34.7968 107.564 35.0652 105.859 35.0652C103.26 35.0652 101.189 34.524 99.6462 33.4417C98.1121 32.3508 97.2129 30.8678 96.9487 28.9928L102.305 28.7115C102.467 29.5042 102.859 30.1093 103.481 30.5269C104.104 30.936 104.9 31.1405 105.872 31.1405C106.827 31.1405 107.594 30.9573 108.173 30.5908C108.761 30.2158 109.06 29.7343 109.068 29.1462C109.06 28.6519 108.851 28.2471 108.442 27.9317C108.033 27.6079 107.402 27.3607 106.55 27.1902L103.149 26.5127C101.231 26.1292 99.8038 25.4644 98.8663 24.5184C97.9374 23.5723 97.4729 22.3664 97.4729 20.9005C97.4729 19.6391 97.8138 18.5525 98.4956 17.6405C99.1859 16.7286 100.153 16.0255 101.398 15.5311C102.65 15.0368 104.116 14.7897 105.795 14.7897C108.275 14.7897 110.227 15.3138 111.65 16.3621C113.082 17.4104 113.917 18.838 114.156 20.6448Z" fill="#9147FF"/>
<path d="M88.0158 26.3209V15.0453H93.4618V34.6817H88.2331V31.1149H88.0286C87.5854 32.2655 86.8482 33.1902 85.8169 33.889C84.7942 34.5879 83.5456 34.9373 82.0712 34.9373C80.7587 34.9373 79.6039 34.639 78.6067 34.0424C77.6095 33.4459 76.8297 32.5978 76.2672 31.4984C75.7132 30.399 75.432 29.0822 75.4235 27.5481V15.0453H80.8695V26.5765C80.878 27.7356 81.1891 28.6518 81.8027 29.3251C82.4164 29.9984 83.2388 30.3351 84.2701 30.3351C84.9263 30.3351 85.5399 30.1859 86.111 29.8876C86.682 29.5808 87.1422 29.1291 87.4916 28.5325C87.8496 27.9359 88.0243 27.1987 88.0158 26.3209Z" fill="#9147FF"/>
<path d="M52.639 34.6817V8.49988H58.0851V18.3436H58.2513C58.4899 17.8152 58.8351 17.2783 59.2868 16.7328C59.747 16.1789 60.3436 15.7186 61.0765 15.3522C61.818 14.9772 62.7385 14.7897 63.8379 14.7897C65.2697 14.7897 66.5907 15.1647 67.801 15.9147C69.0112 16.6561 69.9785 17.7769 70.703 19.2769C71.4274 20.7683 71.7896 22.6391 71.7896 24.8891C71.7896 27.0794 71.4359 28.9289 70.7285 30.4374C70.0297 31.9374 69.0751 33.0752 67.8649 33.8507C66.6632 34.6178 65.3166 35.0013 63.8251 35.0013C62.7683 35.0013 61.8692 34.8266 61.1277 34.4772C60.3947 34.1277 59.7939 33.6888 59.3251 33.1604C58.8564 32.6235 58.4984 32.0823 58.2513 31.5368H58.0084V34.6817H52.639ZM57.97 24.8635C57.97 26.0311 58.1319 27.0496 58.4558 27.9189C58.7797 28.7882 59.2484 29.4658 59.8621 29.9516C60.4757 30.4289 61.2214 30.6675 62.0993 30.6675C62.9856 30.6675 63.7356 30.4246 64.3493 29.9388C64.9629 29.4445 65.4274 28.7627 65.7427 27.8933C66.0666 27.0155 66.2285 26.0056 66.2285 24.8635C66.2285 23.73 66.0709 22.7328 65.7555 21.872C65.4402 21.0112 64.9757 20.3379 64.3621 19.8522C63.7484 19.3664 62.9942 19.1235 62.0993 19.1235C61.2129 19.1235 60.4629 19.3578 59.8493 19.8266C59.2442 20.2953 58.7797 20.9601 58.4558 21.8209C58.1319 22.6817 57.97 23.6959 57.97 24.8635Z" fill="#9147FF"/>
<path fill-rule="evenodd" clip-rule="evenodd" d="M21.5408 15.9316L27.4319 21.8227L21.8226 27.4319L15.9315 21.5408L21.5408 15.9316ZM15.5007 9.89155L11.8072 6.19805C11.5966 5.98737 11.5966 5.64579 11.8072 5.43511L17.0843 0.158011C17.295 -0.0526704 17.6366 -0.0526704 17.8473 0.158011L35.8879 18.1987C37.8894 20.2002 37.8894 23.4452 35.8879 25.4467L27.8627 33.472L31.5562 37.1655C31.7669 37.3762 31.7669 37.7177 31.5562 37.9284L26.2791 43.2055C26.0684 43.4162 25.7268 43.4162 25.5161 43.2055L7.47549 25.1649C5.47399 23.1634 5.47399 19.9183 7.47549 17.9168L15.5007 9.89155Z" fill="#9147FF"/>
</svg>
